<svg width="20" height="20" viewBox="0 0 20 20" fill="none" xmlns="http://www.w3.org/2000/svg">
<g clip-path="url(#clip0_39_403)">
<path d="M3.33341 13.3333C4.25389 13.3333 5.00008 12.5871 5.00008 11.6667C5.00008 10.7462 4.25389 10 3.33341 10C2.41294 10 1.66675 10.7462 1.66675 11.6667C1.66675 12.5871 2.41294 13.3333 3.33341 13.3333Z" fill="#4E5766"/>
<path d="M1.01667 14.65C0.71476 14.7791 0.457436 14.994 0.276682 15.2681C0.0959273 15.5422 -0.000286405 15.8634 6.40412e-07 16.1917V17.5H3.75V16.1584C3.75 15.4667 3.94167 14.8167 4.275 14.25C3.96667 14.2 3.65833 14.1667 3.33333 14.1667C2.50833 14.1667 1.725 14.3417 1.01667 14.65Z" fill="#4E5766"/>
<path d="M16.6667 13.3333C17.5871 13.3333 18.3333 12.5871 18.3333 11.6667C18.3333 10.7462 17.5871 10 16.6667 10C15.7462 10 15 10.7462 15 11.6667C15 12.5871 15.7462 13.3333 16.6667 13.3333Z" fill="#4E5766"/>
<path d="M18.9834 14.65C18.2526 14.3312 17.464 14.1666 16.6667 14.1667C16.3417 14.1667 16.0334 14.2 15.725 14.25C16.0584 14.8167 16.25 15.4667 16.25 16.1583V17.5H20V16.1917C20 15.5167 19.6 14.9167 18.9834 14.65ZM13.5334 13.875C12.5584 13.4417 11.3584 13.125 10 13.125C8.6417 13.125 7.4417 13.45 6.4667 13.875C6.0277 14.0731 5.65553 14.3942 5.39523 14.7995C5.13493 15.2047 4.99766 15.6767 5.00003 16.1583V17.5H15V16.1583C15 15.175 14.4334 14.275 13.5334 13.875ZM6.72503 15.8333C6.80032 15.6417 6.94657 15.4865 7.13336 15.4C8.05003 14.9917 9.0167 14.7917 9.9917 14.7917C10.975 14.7917 11.9334 15 12.85 15.4C13.0417 15.4833 13.1834 15.6417 13.2584 15.8333H6.72503ZM7.50003 10C7.50003 11.3833 8.6167 12.5 10 12.5C11.3834 12.5 12.5 11.3833 12.5 10C12.5 8.61667 11.3834 7.5 10 7.5C8.6167 7.5 7.50003 8.61667 7.50003 10ZM10.8334 10C10.8334 10.4583 10.4584 10.8333 10 10.8333C9.5417 10.8333 9.1667 10.4583 9.1667 10C9.1667 9.54167 9.5417 9.16667 10 9.16667C10.4584 9.16667 10.8334 9.54167 10.8334 10Z" fill="#4E5766"/>
<path d="M2.06667 9.05002C1.80833 8.41669 1.66667 7.80002 1.66667 7.16669C1.66667 5.01669 3.35 3.33335 5.5 3.33335C7.73333 3.33335 8.68333 4.78335 10 6.32502C11.3083 4.80002 12.25 3.33335 14.5 3.33335C16.65 3.33335 18.3333 5.01669 18.3333 7.16669C18.3333 7.80002 18.1917 8.41669 17.9333 9.05002C18.475 9.30835 18.9167 9.73335 19.2083 10.25C19.7083 9.25002 20 8.23335 20 7.16669C20 4.08335 17.5833 1.66669 14.5 1.66669C12.7583 1.66669 11.0917 2.47502 10 3.75835C8.90833 2.47502 7.24167 1.66669 5.5 1.66669C2.41667 1.66669 0 4.08335 0 7.16669C0 8.23335 0.291667 9.25002 0.8 10.25C1.09167 9.73335 1.53333 9.30835 2.06667 9.05002Z" fill="#4E5766"/>
</g>
<defs>
<clipPath id="clip0_39_403">
<rect width="20" height="20" fill="white"/>
</clipPath>
</defs>
</svg>
