<svg width="512" height="512" viewBox="0 0 512 512" fill="none" xmlns="http://www.w3.org/2000/svg">
<rect width="512" height="512" rx="20" fill="#E8F9FF"/>
<path d="M147.312 52.07C171.722 45.8628 198.167 70.1744 208.338 83.1061C252.835 83.1061 292.594 88.1649 301.783 77.4779C301.783 77.4779 324.031 41.0626 355.18 46.5665C386.328 52.0703 377.428 98.7362 399.677 112.25C421.926 125.765 444.874 173.546 437.783 214.538C430.36 257.454 406.67 295.186 381.242 311.997V401.225C381.242 412.864 372.979 421.352 364.079 425.216C355.18 429.08 274.448 436.142 264.277 420.623C254.107 405.104 259.192 401.225 264.277 397.346C269.363 393.467 284.619 387 294.79 385.707V331.394H233.765C237.155 353.378 241.902 400.449 233.765 412.864C223.594 428.382 208.338 428.382 172.74 432.261L172.616 432.275C137.105 436.145 121.236 437.874 111.714 420.623C107.09 412.245 105.951 405.302 111.714 397.346C119.03 387.247 135.446 387 147.312 385.707V311.997C120.19 297.772 79.0586 251.782 79.0586 214.538C79.0586 160.226 96.458 140.005 111.714 121.901C113.409 101.21 122.902 58.2772 147.312 52.07Z" fill="#C4D9FF" stroke="#5D6466" stroke-width="10"/>
<path d="M55 191.454L108.485 209.283" stroke="#5D6466" stroke-width="10" stroke-linecap="round"/>
<path d="M457 190.014L403.515 207.843" stroke="#5D6466" stroke-width="10" stroke-linecap="round"/>
<path d="M55 254.194L108.37 236.025" stroke="#5D6466" stroke-width="10" stroke-linecap="round"/>
<path d="M456.885 252.754L403.515 234.585" stroke="#5D6466" stroke-width="10" stroke-linecap="round"/>
<path d="M112.195 400.929C119.516 391.796 135.944 391.573 147.818 390.403V357.071L235.617 359.894C238.032 380.843 240.474 406.493 234.331 414.964C224.153 428.999 208.886 428.999 173.263 432.508L173.139 432.52C137.603 436.02 121.723 437.584 112.195 421.982C107.568 414.405 106.427 408.125 112.195 400.929Z" fill="#9DAECC"/>
<path d="M264.865 400.929C269.954 397.421 285.221 391.573 295.399 390.403L295.334 360.926L380.935 361.023C380.935 380.58 381.912 399.479 381.912 404.438C381.912 414.964 373.643 422.641 364.737 426.136C355.831 429.63 275.043 436.017 264.865 421.982C254.687 407.946 259.776 404.438 264.865 400.929Z" fill="#9DAECC"/>
<path d="M112.195 400.929C119.516 391.796 135.944 391.573 147.818 390.403V357.071L235.617 359.894C238.032 380.843 240.474 406.493 234.331 414.964C224.153 428.999 208.886 428.999 173.263 432.508L173.139 432.52C137.603 436.02 121.723 437.584 112.195 421.982C107.568 414.405 106.427 408.125 112.195 400.929Z" stroke="#5D6466" stroke-width="10"/>
<path d="M264.865 400.929C269.954 397.421 285.221 391.573 295.399 390.403L295.334 360.926L380.935 361.023C380.935 380.58 381.912 399.479 381.912 404.438C381.912 414.964 373.643 422.641 364.737 426.136C355.831 429.63 275.043 436.017 264.865 421.982C254.687 407.946 259.776 404.438 264.865 400.929Z" stroke="#5D6466" stroke-width="10"/>
<path d="M216.296 172.733L235.018 190.014" stroke="#5D6466" stroke-width="10" stroke-linecap="round"/>
<path d="M235.738 191.454L216.296 207.296" stroke="#5D6466" stroke-width="10" stroke-linecap="round"/>
<path d="M300.544 172.733L281.823 190.014" stroke="#5D6466" stroke-width="10" stroke-linecap="round"/>
<path d="M281.103 191.454L300.544 207.296" stroke="#5D6466" stroke-width="10" stroke-linecap="round"/>
<rect x="236.458" y="211.616" width="38.8839" height="38.8839" rx="19.4419" fill="#5D6466"/>
</svg>
