<svg width="354" height="330" viewBox="0 0 354 330" fill="none" xmlns="http://www.w3.org/2000/svg">
<circle cx="177" cy="165" r="155" fill="#DCE8FF" stroke="#F6FDFF" stroke-width="20"/>
<path d="M114.297 29.9522C126.169 26.9333 139.03 38.7572 143.977 45.0465C165.618 45.0465 184.955 47.5069 189.424 42.3093C189.424 42.3093 200.244 24.5987 215.393 27.2755C230.542 29.9523 226.214 52.6483 237.035 59.2209C247.855 65.7936 259.016 89.0318 255.568 108.969C251.957 129.841 240.435 148.191 228.069 156.368V199.764C228.069 205.424 224.05 209.553 219.722 211.432C215.393 213.311 176.13 216.745 171.183 209.198C166.236 201.65 168.71 199.763 171.183 197.877C173.656 195.991 181.076 192.846 186.023 192.217V165.801H156.343C157.992 176.493 160.3 199.386 156.343 205.424C151.397 212.971 143.977 212.971 126.664 214.858L126.603 214.865C109.333 216.747 101.615 217.588 96.9839 209.198C94.735 205.123 94.1808 201.747 96.9839 197.877C100.542 192.966 108.526 192.846 114.297 192.217V156.368C101.106 149.449 81.1018 127.082 81.1018 108.969C81.1018 82.7581 89.4337 72.8726 96.8116 64.1189L96.9839 63.9145C97.8084 53.8516 102.425 32.971 114.297 29.9522Z" fill="#C5BAFF"/>
<path d="M185.669 88.3347C187.241 88.3348 188.838 89.1617 190.122 90.8406C191.407 92.522 192.275 94.954 192.275 97.7419C192.275 100.53 191.407 102.961 190.122 104.642C188.838 106.321 187.241 107.149 185.669 107.149C184.098 107.149 182.5 106.321 181.216 104.642C179.931 102.961 179.064 100.53 179.064 97.7419C179.064 94.954 179.931 92.522 181.216 90.8406C182.5 89.1614 184.098 88.3347 185.669 88.3347Z" fill="#5D6466" stroke="#5D6466" stroke-width="5"/>
<path d="M150.649 88.3347C152.221 88.3348 153.817 89.1617 155.101 90.8406C156.387 92.522 157.254 94.954 157.254 97.7419C157.254 100.53 156.387 102.961 155.101 104.642C153.817 106.321 152.221 107.149 150.649 107.149C149.077 107.149 147.48 106.321 146.196 104.642C144.91 102.961 144.043 100.53 144.043 97.7419C144.043 94.954 144.91 92.522 146.196 90.8406C147.48 89.1614 149.077 88.3347 150.649 88.3347Z" fill="#5D6466" stroke="#5D6466" stroke-width="5"/>
<path d="M68 96.4739L94.0124 105.145" stroke="#5D6466" stroke-width="5" stroke-linecap="round"/>
<path d="M265.614 92.1384L239.602 100.809" stroke="#5D6466" stroke-width="5" stroke-linecap="round"/>
<path d="M68 126.987L93.9566 118.151" stroke="#5D6466" stroke-width="5" stroke-linecap="round"/>
<path d="M265.558 122.652L239.601 113.815" stroke="#5D6466" stroke-width="5" stroke-linecap="round"/>
<path d="M159.754 119.805L166.058 113.501" stroke="#5D6466" stroke-width="5" stroke-linecap="round"/>
<path d="M166.758 113.151L173.062 120.155" stroke="#5D6466" stroke-width="5" stroke-linecap="round"/>
<path d="M47.8963 137.952C59.7681 134.933 72.6293 146.757 77.5759 153.047C99.2173 153.047 118.554 155.507 123.023 150.309C123.023 150.309 133.844 132.599 148.992 135.276C164.141 137.952 159.813 160.648 170.634 167.221C181.455 173.794 192.615 197.032 189.167 216.969C185.557 237.841 174.035 256.191 161.668 264.368V307.764C161.668 313.424 157.649 317.553 153.321 319.432C148.992 321.311 109.729 324.745 104.782 317.198C99.8356 309.65 102.309 307.764 104.782 305.877C107.256 303.991 114.675 300.846 119.622 300.217V273.802H89.9424C91.5913 284.493 93.8997 307.387 89.9424 313.424C84.9958 320.971 77.5759 320.971 60.2628 322.858L60.2027 322.865C42.9318 324.747 35.214 325.588 30.5832 317.198C28.3343 313.123 27.7801 309.747 30.5832 305.877C34.1411 300.966 42.1252 300.846 47.8963 300.217V264.368C34.7053 257.449 14.701 235.082 14.701 216.969C14.701 190.758 23.0329 180.873 30.4109 172.119L30.5832 171.915C31.4076 161.852 36.0244 140.971 47.8963 137.952Z" fill="#C4D9FF"/>
<path d="M3 205.742L29.0124 214.413" stroke="#5D6466" stroke-width="5" stroke-linecap="round"/>
<path d="M198.513 205.041L172.5 213.712" stroke="#5D6466" stroke-width="5" stroke-linecap="round"/>
<path d="M3 236.255L28.9566 227.419" stroke="#5D6466" stroke-width="5" stroke-linecap="round"/>
<path d="M198.457 235.555L172.5 226.718" stroke="#5D6466" stroke-width="5" stroke-linecap="round"/>
<path d="M30.8168 307.62C34.3773 303.178 42.367 303.069 48.1421 302.501V286.289L90.8434 287.662C92.0175 297.851 93.2054 310.326 90.2177 314.446C85.2676 321.272 77.8425 321.272 60.5172 322.978L60.4571 322.984C43.1741 324.686 35.4509 325.447 30.8168 317.859C28.5663 314.173 28.0117 311.12 30.8168 307.62Z" fill="#9DAECC"/>
<path d="M105.068 307.62C107.543 305.914 114.968 303.069 119.918 302.501L119.886 288.164L161.518 288.211C161.518 297.723 161.994 306.914 161.994 309.326C161.994 314.446 157.972 318.18 153.641 319.879C149.309 321.579 110.018 324.685 105.068 317.859C100.118 311.033 102.593 309.326 105.068 307.62Z" fill="#9DAECC"/>
<path d="M30.8168 307.62C34.3773 303.178 42.367 303.069 48.1421 302.501V286.289L90.8434 287.662C92.0175 297.851 93.2054 310.326 90.2177 314.446C85.2676 321.272 77.8425 321.272 60.5172 322.978L60.4571 322.984C43.1741 324.686 35.4509 325.447 30.8168 317.859C28.5663 314.173 28.0117 311.12 30.8168 307.62Z" stroke="#5D6466"/>
<path d="M105.068 307.62C107.543 305.914 114.968 303.069 119.918 302.501L119.886 288.164L161.518 288.211C161.518 297.723 161.994 306.914 161.994 309.326C161.994 314.446 157.972 318.18 153.641 319.879C149.309 321.579 110.018 324.685 105.068 317.859C100.118 311.033 102.593 309.326 105.068 307.62Z" stroke="#5D6466"/>
<path d="M81.4463 196.636L90.5517 205.041" stroke="#5D6466" stroke-width="5" stroke-linecap="round"/>
<path d="M90.9019 205.742L81.4463 213.446" stroke="#5D6466" stroke-width="5" stroke-linecap="round"/>
<path d="M122.42 196.636L113.315 205.041" stroke="#5D6466" stroke-width="5" stroke-linecap="round"/>
<path d="M112.965 205.742L122.42 213.446" stroke="#5D6466" stroke-width="5" stroke-linecap="round"/>
<rect x="91.252" y="215.548" width="18.9112" height="18.9112" rx="9.45558" fill="#5D6466"/>
<path d="M201.503 139.963C213.375 136.933 226.236 148.801 231.183 155.113C252.824 155.113 272.161 157.583 276.63 152.366C276.63 152.366 287.45 134.59 302.599 137.277C317.748 139.963 313.42 162.743 324.241 169.34C335.061 175.937 346.222 199.262 342.774 219.272C339.163 240.222 327.641 258.64 315.275 266.847V310.404C315.275 316.085 311.256 320.229 306.928 322.115C302.599 324.001 263.336 327.448 258.389 319.873C253.442 312.297 255.916 310.403 258.389 308.51C260.862 306.616 268.282 303.46 273.229 302.829V276.316H243.549C245.198 287.047 247.507 310.025 243.549 316.085C238.603 323.66 231.183 323.66 213.87 325.554L213.809 325.561C196.539 327.45 188.821 328.294 184.19 319.873C181.941 315.783 181.387 312.394 184.19 308.51C187.748 303.58 195.732 303.46 201.503 302.829V266.847C188.312 259.903 168.308 237.453 168.308 219.272C168.308 192.76 176.77 182.889 184.19 174.051C185.014 163.951 189.631 142.993 201.503 139.963Z" fill="#E8F9FF"/>
<path d="M237.299 187.829C240.634 187.829 244.254 191.473 244.254 197.236C244.254 202.999 240.634 206.643 237.299 206.643C233.964 206.643 230.343 202.999 230.343 197.236C230.343 191.472 233.964 187.829 237.299 187.829Z" fill="#5D6466" stroke="#5D6466" stroke-width="5"/>
<path d="M272.669 187.829C274.241 187.829 275.838 188.655 277.122 190.334C278.407 192.016 279.275 194.448 279.275 197.236C279.275 200.024 278.407 202.455 277.122 204.136C275.838 205.815 274.241 206.643 272.669 206.643C271.098 206.643 269.5 205.815 268.216 204.136C266.931 202.455 266.064 200.023 266.064 197.236C266.064 194.448 266.931 192.016 268.216 190.334C269.5 188.655 271.098 187.829 272.669 187.829Z" fill="#5D6466" stroke="#5D6466" stroke-width="5"/>
<path d="M234.847 223.151C238.807 225.451 247.406 231.99 256.91 231.99C266.414 231.99 276.145 225.451 278.973 223.151" stroke="#5D6466" stroke-width="5" stroke-linecap="round"/>
<path d="M155 206.341L181.012 215.012" stroke="#5D6466" stroke-width="5" stroke-linecap="round"/>
<path d="M351.213 204.94L325.2 213.611" stroke="#5D6466" stroke-width="5" stroke-linecap="round"/>
<path d="M155 235.49L180.957 226.653" stroke="#5D6466" stroke-width="5" stroke-linecap="round"/>
<path d="M351.157 234.789L325.2 225.952" stroke="#5D6466" stroke-width="5" stroke-linecap="round"/>
</svg>
