<svg width="393" height="792" viewBox="0 0 393 792" fill="none" xmlns="http://www.w3.org/2000/svg">
<rect width="393" height="406" fill="#A0D2F5"/>
<rect y="296.655" width="393" height="495.345" fill="#D7F5A0"/>
<path d="M28.7254 274.524C29.4723 273.088 31.5277 273.088 32.2746 274.524L44.1362 297.342C44.8283 298.674 43.8622 300.265 42.3617 300.265H18.6383C17.1378 300.265 16.1717 298.674 16.8638 297.342L28.7254 274.524Z" fill="#D7F5A0"/>
<path d="M355.725 273.414C356.472 271.977 358.528 271.977 359.275 273.414L371.136 296.232C371.828 297.563 370.862 299.154 369.362 299.154H345.638C344.138 299.154 343.172 297.563 343.864 296.232L355.725 273.414Z" fill="#D7F5A0"/>
<path d="M61.7254 274.524C62.4723 273.088 64.5277 273.088 65.2746 274.524L77.1362 297.342C77.8283 298.674 76.8622 300.265 75.3617 300.265H51.6383C50.1378 300.265 49.1717 298.674 49.8638 297.342L61.7254 274.524Z" fill="#D7F5A0"/>
<path d="M388.725 273.414C389.472 271.977 391.528 271.977 392.275 273.414L404.136 296.232C404.828 297.563 403.862 299.154 402.362 299.154H378.638C377.138 299.154 376.172 297.563 376.864 296.232L388.725 273.414Z" fill="#D7F5A0"/>
<circle cx="37.738" cy="84.0158" r="26.738" fill="white"/>
<circle cx="91.5286" cy="72.3769" r="38.3769" fill="white"/>
<circle cx="130.22" cy="81.4993" r="29.2545" fill="white"/>
<rect x="38.0526" y="84.3303" width="96.886" height="26.4234" fill="white"/>
<circle cx="309.738" cy="32.0158" r="26.738" fill="white"/>
<circle cx="363.529" cy="20.3769" r="38.3769" fill="white"/>
<circle cx="402.22" cy="29.4993" r="29.2545" fill="white"/>
<rect x="310.052" y="32.3303" width="96.886" height="26.4234" fill="white"/>
<path d="M135.915 206.512C149.475 202.921 164.165 216.988 169.815 224.471C194.533 224.471 216.619 227.399 221.723 221.215C221.723 221.215 234.082 200.143 251.385 203.328C268.688 206.513 263.745 233.516 276.104 241.336C288.463 249.156 301.21 276.804 297.272 300.524C293.148 325.357 279.988 347.19 265.863 356.918V408.55C265.863 415.284 261.273 420.196 256.329 422.432C251.385 424.668 206.539 428.754 200.889 419.774C195.239 410.794 198.064 408.549 200.889 406.305C203.714 404.061 212.189 400.319 217.839 399.57V368.142H183.939C185.823 380.863 188.459 408.101 183.939 415.284C178.289 424.264 169.815 424.264 150.04 426.509L149.971 426.517C130.245 428.756 121.43 429.757 116.14 419.774C113.572 414.926 112.939 410.909 116.14 406.305C120.204 400.461 129.323 400.319 135.915 399.57V356.918C120.849 348.687 98 322.075 98 300.524C98 269.096 107.665 257.396 116.14 246.92C117.082 234.947 122.355 210.104 135.915 206.512Z" fill="#E8F9FF"/>
<path d="M177.126 274.009C180.054 274.009 183.896 277.381 183.896 283.571C183.896 289.76 180.054 293.132 177.126 293.132C174.199 293.132 170.357 289.76 170.357 283.571C170.357 277.381 174.199 274.009 177.126 274.009Z" fill="#5D6466" stroke="#5D6466" stroke-width="8"/>
<path d="M217.411 274.009C218.767 274.009 220.273 274.717 221.567 276.411C222.865 278.107 223.782 280.626 223.782 283.571C223.782 286.515 222.865 289.033 221.567 290.73C220.273 292.423 218.767 293.132 217.411 293.132C216.056 293.132 214.551 292.423 213.256 290.73C211.958 289.033 211.041 286.515 211.041 283.571C211.041 280.626 211.958 278.107 213.256 276.411C214.55 274.718 216.056 274.009 217.411 274.009Z" fill="#5D6466" stroke="#5D6466" stroke-width="8"/>
<path d="M174.334 313.086C178.844 315.706 188.638 323.154 199.463 323.154C210.287 323.154 221.369 315.706 224.591 313.086" stroke="#5D6466" stroke-width="8" stroke-linecap="round"/>
<path d="M81 296.818L110.627 306.693" stroke="#5D6466" stroke-width="8" stroke-linecap="round"/>
<path d="M313.075 291.88L283.448 301.755" stroke="#5D6466" stroke-width="8" stroke-linecap="round"/>
<path d="M81 331.571L110.563 321.506" stroke="#5D6466" stroke-width="8" stroke-linecap="round"/>
<path d="M313.011 326.633L283.448 316.568" stroke="#5D6466" stroke-width="8" stroke-linecap="round"/>
</svg>
