<svg width="241" height="233" viewBox="0 0 241 233" fill="none" xmlns="http://www.w3.org/2000/svg">
<path d="M58.915 7.5124C72.4748 3.92063 87.1646 17.9884 92.8146 25.4713C117.533 25.4713 139.619 28.3986 144.723 22.2145C144.723 22.2145 157.082 1.143 174.385 4.32779C191.688 7.51258 186.745 34.5156 199.104 42.3356C211.463 50.1556 224.21 77.8038 220.272 101.524C216.148 126.357 202.988 148.19 188.863 157.918V209.55C188.863 216.284 184.273 221.196 179.329 223.432C174.385 225.668 129.539 229.754 123.889 220.774C118.239 211.794 121.064 209.549 123.889 207.305C126.714 205.061 135.189 201.319 140.839 200.57V169.142H106.939C108.823 181.863 111.459 209.101 106.939 216.284C101.289 225.264 92.8146 225.264 73.0398 227.509L72.9711 227.517C53.2446 229.756 44.4296 230.757 39.1403 220.774C36.5716 215.926 35.9386 211.909 39.1403 207.305C43.2041 201.461 52.3234 201.319 58.915 200.57V157.918C43.8486 149.687 21 123.075 21 101.524C21 70.0965 30.6654 58.3959 39.1403 47.9199C40.0819 35.9473 45.3552 11.1042 58.915 7.5124Z" fill="#E8F9FF" stroke="#5D6466" stroke-width="8"/>
<path d="M100.126 75.009C103.054 75.0092 106.896 78.381 106.896 84.5706C106.896 90.76 103.054 94.1319 100.126 94.1321C97.1986 94.1321 93.357 90.7601 93.3569 84.5706C93.3569 78.3809 97.1986 75.009 100.126 75.009Z" fill="#5D6466" stroke="#5D6466" stroke-width="8"/>
<path d="M140.411 75.009C141.767 75.009 143.273 75.7173 144.567 77.4104C145.865 79.1073 146.782 81.6258 146.782 84.5706C146.782 87.515 145.865 90.0329 144.567 91.7297C143.273 93.4229 141.767 94.1321 140.411 94.1321C139.056 94.132 137.551 93.4228 136.256 91.7297C134.958 90.0329 134.041 87.5151 134.041 84.5706C134.041 81.6258 134.958 79.1073 136.256 77.4104C137.55 75.7176 139.056 75.0092 140.411 75.009Z" fill="#5D6466" stroke="#5D6466" stroke-width="8"/>
<path d="M97.3342 114.086C101.844 116.706 111.638 124.154 122.463 124.154C133.287 124.154 144.369 116.706 147.591 114.086" stroke="#5D6466" stroke-width="8" stroke-linecap="round"/>
<path d="M4 97.8176L33.6266 107.693" stroke="#5D6466" stroke-width="8" stroke-linecap="round"/>
<path d="M236.075 92.8796L206.448 102.755" stroke="#5D6466" stroke-width="8" stroke-linecap="round"/>
<path d="M4 132.571L33.563 122.506" stroke="#5D6466" stroke-width="8" stroke-linecap="round"/>
<path d="M236.011 127.633L206.448 117.568" stroke="#5D6466" stroke-width="8" stroke-linecap="round"/>
</svg>
