<svg width="40" height="40" viewBox="0 0 40 40" fill="none" xmlns="http://www.w3.org/2000/svg">
<path d="M0 20C0 8.95433 8.95433 0 20 0C31.0457 0 40 8.95433 40 20C40 31.0457 31.0457 40 20 40C8.95433 40 0 31.0457 0 20Z" fill="#FFE812"/>
<path d="M20.0001 9.16669C12.6362 9.16669 6.66675 13.8735 6.66675 19.6795C6.66675 23.4332 9.16241 26.7269 12.9165 28.5869C12.7122 29.2912 11.6041 33.1181 11.5599 33.4188C11.5599 33.4188 11.5334 33.6446 11.6797 33.7308C11.826 33.8169 11.998 33.75 11.998 33.75C12.4175 33.6914 16.8625 30.5691 17.6319 30.0269C18.4005 30.1358 19.1919 30.1924 20.0001 30.1924C27.3639 30.1924 33.3334 25.4857 33.3334 19.6795C33.3334 13.8735 27.3639 9.16669 20.0001 9.16669Z" fill="#381F1F"/>
<path fill-rule="evenodd" clip-rule="evenodd" d="M12.6281 23.3494C12.2039 23.3494 11.8589 23.0199 11.8589 22.6148V18.0449H10.6586C10.2424 18.0449 9.90381 17.7069 9.90381 17.2917C9.90381 16.8764 10.2425 16.5385 10.6586 16.5385H14.5976C15.0139 16.5385 15.3525 16.8764 15.3525 17.2917C15.3525 17.7069 15.0138 18.0449 14.5976 18.0449H13.3974V22.6148C13.3974 23.0199 13.0524 23.3494 12.6281 23.3494ZM19.3732 23.3394C19.0525 23.3394 18.8071 23.2092 18.7331 22.9997L18.3522 22.0025L16.0066 22.0023L15.6255 23.0002C15.5517 23.2093 15.3065 23.3394 14.9857 23.3394C14.817 23.3396 14.6501 23.3033 14.4967 23.2333C14.2846 23.1354 14.0808 22.8664 14.3144 22.1409L16.1544 17.2978C16.2841 16.9295 16.6777 16.55 17.1788 16.5386C17.6812 16.5499 18.0749 16.9295 18.2048 17.2986L20.0441 22.1395C20.2781 22.8667 20.0743 23.1358 19.8622 23.2333C19.7087 23.3033 19.542 23.3395 19.3732 23.3394ZM17.1794 18.4573L17.9477 20.6399H16.4111L17.1794 18.4573ZM21.282 23.2373C20.8754 23.2373 20.5448 22.9208 20.5448 22.5321V17.3078C20.5448 16.8835 20.8971 16.5385 21.3301 16.5385C21.763 16.5385 22.1153 16.8835 22.1153 17.3078V21.8269H23.7499C24.1565 21.8269 24.4871 22.1433 24.4871 22.5321C24.4871 22.9208 24.1565 23.2373 23.7499 23.2373H21.282ZM24.7863 22.5702C24.7863 22.9944 25.1313 23.3394 25.5556 23.3394C25.7596 23.3391 25.9551 23.2579 26.0994 23.1137C26.2436 22.9694 26.3248 22.7738 26.3251 22.5698V20.8914L26.592 20.6245L28.396 23.0148C28.4674 23.1102 28.5601 23.1875 28.6669 23.2407C28.7736 23.2938 28.8912 23.3211 29.0104 23.3206C29.1776 23.3209 29.3401 23.2664 29.4731 23.1653C29.554 23.1047 29.622 23.0287 29.6732 22.9416C29.7244 22.8545 29.7579 22.7581 29.7716 22.658C29.786 22.5579 29.7803 22.4561 29.7549 22.3583C29.7296 22.2604 29.6851 22.1686 29.6239 22.0881L27.7304 19.5797L29.4834 17.8269C29.6039 17.7063 29.6643 17.54 29.6531 17.3586C29.6421 17.1788 29.5617 17.0056 29.427 16.8709C29.2825 16.7266 29.0896 16.6438 28.8976 16.6438C28.733 16.6438 28.5813 16.7045 28.471 16.8149L26.3248 18.9611V17.3078C26.3248 16.8835 25.9798 16.5385 25.5556 16.5385C25.1313 16.5385 24.7863 16.8835 24.7863 17.3078V22.5702Z" fill="#FFE812"/>
</svg>
